<?xml version="1.0" encoding="UTF-8"?>
<svg id="Calque_1" data-name="Calque 1" xmlns="http://www.w3.org/2000/svg" xmlns:xlink="http://www.w3.org/1999/xlink" viewBox="0 0 265.48 202.44">
  <defs>
    <style>
      .cls-1 {
        fill: #000;
      }

      .cls-1, .cls-2, .cls-3, .cls-4, .cls-5, .cls-6, .cls-7 {
        stroke-width: 0px;
      }

      .cls-2 {
        fill: url(#Dégradé_sans_nom_3);
      }

      .cls-3 {
        fill: #909090;
      }

      .cls-4 {
        fill: url(#Dégradé_sans_nom_4);
      }

      .cls-5 {
        fill: url(#Dégradé_sans_nom_2);
      }

      .cls-6 {
        fill: #0f2548;
      }

      .cls-7 {
        fill: url(#Dégradé_sans_nom);
      }
    </style>
    <linearGradient id="Dégradé_sans_nom" data-name="Dégradé sans nom" x1="184.66" y1="200.49" x2="85.27" y2="200.49" gradientTransform="translate(0 220.55) scale(1 -1)" gradientUnits="userSpaceOnUse">
      <stop offset="0" stop-color="#0084be"/>
      <stop offset="1" stop-color="#243f6c"/>
    </linearGradient>
    <linearGradient id="Dégradé_sans_nom_2" data-name="Dégradé sans nom 2" x1="189.63" y1="149.5" x2="166.02" y2="180.27" gradientTransform="translate(0 220.55) scale(1 -1)" gradientUnits="userSpaceOnUse">
      <stop offset="0" stop-color="#a2a3a2"/>
      <stop offset="1" stop-color="#dbe0df"/>
    </linearGradient>
    <linearGradient id="Dégradé_sans_nom_3" data-name="Dégradé sans nom 3" x1="86.84" y1="132.7" x2="178.92" y2="132.7" gradientTransform="translate(0 220.55) scale(1 -1)" gradientUnits="userSpaceOnUse">
      <stop offset="0" stop-color="#0084be"/>
      <stop offset="1" stop-color="#243f6c"/>
    </linearGradient>
    <linearGradient id="Dégradé_sans_nom_4" data-name="Dégradé sans nom 4" x1="145.36" y1="171.45" x2="118.84" y2="136.89" gradientTransform="translate(0 220.55) scale(1 -1)" gradientUnits="userSpaceOnUse">
      <stop offset="0" stop-color="#c32b26"/>
      <stop offset="1" stop-color="#983b67"/>
    </linearGradient>
  </defs>
  <g id="CERT-FR_-_Logotype_-_RVB" data-name="CERT-FR - Logotype - RVB">
    <path id="CERT-FR" class="cls-1" d="M34.21,186.36l9.09,6.9c-4.18,5.55-10.89,9.17-19.14,9.17-14.37,0-24.16-10.97-24.16-23.88s9.79-23.88,24.16-23.88c8.25,0,14.94,3.61,19.14,9.1l-9.09,6.98c-2.13-3.1-5.54-5.3-10.05-5.3-7.22,0-12.37,5.55-12.37,13.11s5.15,13.09,12.37,13.09c4.44.01,7.92-2.19,10.05-5.28ZM50.94,156h28.61v9.75h-16.83v8.16h14.18v9.75h-14.18v9.03h16.83v9.75h-28.61v-46.43ZM90.57,156h15.56c10.87,0,17.55,5.37,17.55,14.46,0,5.64-2.65,9.88-7.28,12.28l14.18,19.71h-13.78l-11.67-17.58h-2.78v17.58h-11.79s0-46.44,0-46.44ZM102.37,165.76v9.36h4.5c2.98,0,4.7-1.93,4.7-4.78,0-2.65-1.72-4.58-4.7-4.58h-4.5ZM130.08,156h38.82v10.68h-13.52v35.77h-11.79v-35.77h-13.51v-10.68ZM190.05,183.61v3.72h-17.89v-3.72h17.89ZM199.07,156h23.59v3.72h-19.34v17.24h16.69v3.65h-16.69v21.84h-4.23v-46.44h-.01ZM232.89,156h11.13c8.88,0,14.31,4.98,14.31,12.61,0,5.51-2.92,9.61-7.96,11.47l15.11,22.36h-5.03l-14.18-21.5c-.73.07-1.45.13-2.24.13h-6.88v21.36h-4.23v-46.44h-.03ZM237.12,159.71v17.65h7.02c6.09,0,9.74-3.26,9.74-8.9s-3.64-8.76-9.74-8.76h-7.02Z"/>
    <g id="logotype">
      <path class="cls-6" d="M160.27,99c-7.55,6.54-17.39,10.51-28.17,10.51-23.79,0-43.08-19.32-43.08-43.15,0-6.74,1.55-13.13,4.3-18.82l-18.63-14.32c-5.63,9.76-8.86,21.07-8.86,33.14,0,36.66,29.68,66.38,66.28,66.38,18.28,0,34.84-7.42,46.83-19.41l-18.67-14.34Z"/>
      <path class="cls-3" d="M166.26,40.12c5.58,7.27,8.91,16.38,8.91,26.26,0,6.74-1.55,13.13-4.3,18.82l18.64,14.32c5.63-9.76,8.86-21.07,8.86-33.14,0-15.21-5.12-29.21-13.71-40.4l-18.4,14.13Z"/>
      <path class="cls-7" d="M132.1,0c-18.28,0-34.84,7.42-46.83,19.41l18.66,14.34c7.55-6.54,17.39-10.51,28.17-10.51,13.92,0,26.29,6.62,34.17,16.88l18.4-14.13C172.55,10.18,153.52,0,132.1,0Z"/>
      <path class="cls-5" d="M184.72,26.05s-.04-.05-.05-.07l-18.4,14.13c5.58,7.27,8.91,16.38,8.91,26.26,0,6.74-1.55,13.13-4.3,18.82h0c7.8-4.87,14.1-12.28,17.54-21.57,4.78-12.94,2.98-26.68-3.7-37.59Z"/>
      <path class="cls-2" d="M132.1,109.51c-23.79,0-43.08-19.32-43.08-43.15,0-6.74,1.55-13.13,4.3-18.82h-.01c-2.77,5.16-4.74,10.86-5.74,16.96-4.89,29.85,15.3,58.01,45.08,62.92,17.43,2.87,34.3-2.87,46.28-14.09l-18.66-14.34c-7.55,6.54-17.39,10.51-28.17,10.51Z"/>
      <path class="cls-6" d="M180.43,22.48c-24.23-18.05-58.48-13-76.5,11.25,7.55-6.54,17.39-10.51,28.17-10.51,13.92,0,26.29,6.62,34.17,16.88l18.39-14.13c-1.33-1.21-2.73-2.38-4.22-3.49Z"/>
      <polygon class="cls-4" points="151.68 78.78 151.68 53.97 132.1 38.92 112.53 53.97 112.53 78.78 132.1 93.83 132.1 93.83 151.68 78.78"/>
    </g>
  </g>
</svg>